<svg height="512pt" viewBox="-100 0 512 512" width="512pt" xmlns="http://www.w3.org/2000/svg"><path d="m271 30h41v-30h-312v30h41v152.214844l73.785156 73.785156-73.785156 73.785156v152.214844h-41v30h312v-30h-41v-152.214844l-73.785156-73.785156 73.785156-73.785156zm-30 0v110.179688c-54.089844-24.359376-115.910156-24.359376-170 0v-110.179688zm-98.785156 211-68.675782-68.671875c51.695313-27.183594 113.226563-27.183594 164.921876 0l-68.675782 68.671875zm-1.214844 31.214844v88.785156h-1.214844l-68.785156 68.785156v-87.570312zm-70 209.785156v-9.785156l81.214844-81.214844h7.570312l81.214844 81.214844v9.785156zm170-52.214844-68.785156-68.785156h-1.214844v-88.785156l70 70zm0 0"/></svg>